<?xml version="1.0" encoding="utf-8"?>
<!-- Generator: Adobe Illustrator 16.0.0, SVG Export Plug-In . SVG Version: 6.00 Build 0)  -->
<!DOCTYPE svg PUBLIC "-//W3C//DTD SVG 1.1//EN" "http://www.w3.org/Graphics/SVG/1.1/DTD/svg11.dtd">
<svg version="1.1" id="Layer_1" xmlns="http://www.w3.org/2000/svg" xmlns:xlink="http://www.w3.org/1999/xlink" x="0px" y="0px"
	 width="120px" height="30px" viewBox="0 0 120 30" enable-background="new 0 0 120 30" xml:space="preserve">
<g>
	<path fill="#FFFFFF" d="M26.754,29.282H15.829V10.013H25.91c0.364,0,0.741,0.046,1.131,0.137c0.388,0.091,0.769,0.223,1.142,0.397
		s0.72,0.376,1.042,0.608c0.323,0.232,0.601,0.489,0.833,0.77c0.414,0.497,0.732,1.052,0.956,1.664
		c0.223,0.612,0.335,1.241,0.335,1.887c0,0.746-0.149,1.461-0.447,2.147c-0.298,0.688-0.728,1.288-1.291,1.801
		c0.365,0.231,0.699,0.514,1.006,0.845c0.307,0.332,0.567,0.696,0.782,1.094c0.215,0.396,0.385,0.813,0.509,1.252
		c0.125,0.439,0.187,0.865,0.187,1.28c0,0.728-0.138,1.419-0.41,2.073c-0.273,0.653-0.654,1.226-1.142,1.712
		c-0.489,0.489-1.055,0.88-1.701,1.169C28.194,29.138,27.499,29.282,26.754,29.282z M24.346,13.886h-3.451v3.923h3.451
		c0.529,0,0.99-0.193,1.378-0.582c0.389-0.389,0.584-0.849,0.584-1.379c0-0.529-0.195-0.99-0.584-1.378
		C25.335,14.082,24.875,13.886,24.346,13.886z M24.519,21.311h-3.625v3.899h3.625c0.547,0,1.01-0.189,1.391-0.57
		c0.381-0.381,0.572-0.845,0.572-1.391c0-0.531-0.191-0.985-0.572-1.366C25.529,21.502,25.066,21.311,24.519,21.311z"/>
	<path fill="#FFFFFF" d="M67.269,29.282v-9.907l-4.122,6.802c-0.049,0.101-0.133,0.167-0.249,0.2
		c-0.115,0.034-0.216,0.051-0.298,0.051c-0.099,0-0.207-0.017-0.322-0.051c-0.116-0.033-0.199-0.1-0.249-0.2l-4.122-6.802v9.907
		h-5.042V10.013h4.718c0.166,0,0.306,0.075,0.423,0.224l4.569,7.623l4.594-7.623c0.116-0.149,0.249-0.224,0.396-0.224h4.743v19.269
		H67.269z"/>
	<path fill="#FFFFFF" d="M84.353,29.282H73.427V10.013h10.081c0.365,0,0.74,0.046,1.131,0.137c0.388,0.091,0.77,0.223,1.142,0.397
		s0.719,0.376,1.043,0.608c0.322,0.232,0.6,0.489,0.832,0.77c0.413,0.497,0.731,1.052,0.956,1.664
		c0.224,0.612,0.335,1.241,0.335,1.887c0,0.746-0.149,1.461-0.447,2.147c-0.298,0.688-0.728,1.288-1.291,1.801
		c0.364,0.231,0.698,0.514,1.006,0.845c0.307,0.332,0.567,0.696,0.782,1.094c0.215,0.396,0.386,0.813,0.509,1.252
		c0.124,0.439,0.187,0.865,0.187,1.28c0,0.728-0.137,1.419-0.409,2.073c-0.274,0.653-0.655,1.226-1.143,1.712
		c-0.489,0.489-1.056,0.88-1.701,1.169S85.098,29.282,84.353,29.282z M81.943,13.886h-3.451v3.923h3.451
		c0.529,0,0.99-0.193,1.379-0.582s0.583-0.849,0.583-1.379c0-0.529-0.194-0.99-0.583-1.378
		C82.934,14.082,82.473,13.886,81.943,13.886z M82.118,21.311h-3.626v3.899h3.626c0.545,0,1.01-0.189,1.39-0.57
		s0.571-0.845,0.571-1.391c0-0.531-0.191-0.985-0.571-1.366S82.663,21.311,82.118,21.311z"/>
	<path fill="#FFFFFF" d="M102.399,29.282l-0.993-2.657h-5.935l-0.994,2.657h-5.438l7.128-19.269h4.544l7.127,19.269H102.399z
		 M98.451,17.04l-1.539,5.092h3.054L98.451,17.04z"/>
	<g>
		<path fill="#FFFFFF" d="M45.291,8.327c0.189-3.347,1.841-3.495,3.6-3.196c0.414,0.071,0.841,0.165,1.264,0.24
			c0.406,0.072,0.809,0.128,1.192,0.125c0.732-0.005,1.346-0.223,1.788-0.937l0.146-0.235l1.176,0.727L54.31,5.286
			c-0.733,1.188-2.654,2.348-5.874,1.165c-0.82-0.3-1.231,0.003-1.479,0.516c-0.272,0.565-0.329,1.386-0.292,2.013l0.016,0.276
			l-1.379,0.083C45.302,9.338,45.266,8.761,45.291,8.327L45.291,8.327z"/>
		<g>
			<defs>
				<path id="SVGID_1_" d="M45.562,9.046c0,0-0.018-0.29,0.005-0.705c0.354-6.256,5.783-0.366,7.804-3.637l0.705,0.435
					c-0.654,1.061-2.428,2.197-5.543,1.052c-1.929-0.709-2.217,1.52-2.142,2.804L45.562,9.046L45.562,9.046z"/>
			</defs>
			<use xlink:href="#SVGID_1_"  overflow="visible" fill="#FDC679"/>
			<clipPath id="SVGID_2_">
				<use xlink:href="#SVGID_1_"  overflow="visible"/>
			</clipPath>
			<path clip-path="url(#SVGID_2_)" fill="#E2A160" d="M52.053,4.981c0,0,0.401,0.348,0.759,0.778
				c0.261,0.314,0.735,0.942,0.503,1.383l-0.219-0.116c0.253-0.48-0.938-1.625-1.206-1.858L52.053,4.981L52.053,4.981z"/>
			<path clip-path="url(#SVGID_2_)" fill="#E2A160" d="M50.759,5c0,0,0.106,0.094,0.255,0.243c0.385,0.386,1.356,1.442,0.733,1.986
				l-0.164-0.187c0.486-0.424-0.675-1.58-0.989-1.854L50.759,5L50.759,5z"/>
			<path clip-path="url(#SVGID_2_)" fill="#E2A160" d="M49.366,4.706c0,0,0.079,0.111,0.184,0.286
				c0.345,0.584,0.862,1.707,0.144,2.234l-0.147-0.2c0.622-0.458-0.037-1.69-0.382-2.175L49.366,4.706L49.366,4.706z"/>
			<path clip-path="url(#SVGID_2_)" fill="#E2A160" d="M46.914,4.71c0.347,0.205,0.688,0.373,0.993,0.646
				c0.386,0.345,0.715,0.853,0.373,1.447l-0.215-0.125c0.484-0.841-0.724-1.428-1.278-1.753L46.914,4.71L46.914,4.71z"/>
			<path clip-path="url(#SVGID_2_)" fill="#E2A160" d="M45.573,5.471c0,0,0.549,0.206,1.048,0.453
				c0.165,0.082,1.181,0.559,0.754,0.902L47.22,6.633c0.005-0.005,0.002-0.002,0.002-0.002c-0.105-0.275-1.489-0.834-1.737-0.927
				L45.573,5.471L45.573,5.471z"/>
			<path clip-path="url(#SVGID_2_)" fill="#E2A160" d="M45.126,6.962c0,0,0.472,0.002,0.968,0.041
				c0.232,0.019,1.037,0.071,1.196,0.324l-0.21,0.132c-0.127-0.202-1.788-0.247-1.955-0.248L45.126,6.962L45.126,6.962z"/>
			<path clip-path="url(#SVGID_2_)" fill="#FFFFFF" d="M45.619,9.106c0,0-0.018-0.289,0.006-0.704
				c0.354-6.256,5.783-0.366,7.802-3.637l0.201,0.125c-2.037,3.193-7.429-2.633-7.781,3.602c-0.016,0.268-0.013,0.483-0.01,0.602
				L45.619,9.106L45.619,9.106z"/>
		</g>
		<path fill="#FFFFFF" d="M32.728,16.308c1.804-5.193,7.476-7.939,12.669-6.135c5.193,1.806,7.939,7.479,6.134,12.671
			c-1.805,5.192-7.477,7.939-12.669,6.133C33.669,27.173,30.922,21.498,32.728,16.308L32.728,16.308z"/>
		<g>
			<defs>
				<path id="SVGID_3_" d="M45.183,10.795c4.846,1.685,7.41,6.979,5.725,11.825c-1.685,4.848-6.979,7.409-11.826,5.726
					c-4.847-1.684-7.41-6.979-5.725-11.826C35.042,11.673,40.336,9.11,45.183,10.795L45.183,10.795z"/>
			</defs>
			<use xlink:href="#SVGID_3_"  overflow="visible" fill="#FFFFFF"/>
			<clipPath id="SVGID_4_">
				<use xlink:href="#SVGID_3_"  overflow="visible"/>
			</clipPath>
			<path clip-path="url(#SVGID_4_)" d="M44.68,11.382c1.174,0.408,1.659,0.982,0.853,0.703c-4.476-1.556-9.366,0.811-10.922,5.288
				c-1.148,3.302-0.161,6.83,2.234,9.078c-3-2.16-4.363-6.11-3.086-9.78C35.313,12.193,40.204,9.826,44.68,11.382L44.68,11.382z"/>
		</g>
		<path fill="#F4F4F4" d="M43.36,7.357l5.38,1.871c0.721,0.25,1.102,1.038,0.852,1.76l-0.399,1.149
			c-0.25,0.721-1.038,1.102-1.76,0.852l-5.38-1.87c-0.721-0.25-1.102-1.04-0.852-1.76l0.399-1.149
			C41.851,7.488,42.639,7.107,43.36,7.357L43.36,7.357z"/>
		<path fill="#FFFFFF" stroke="#FFFFFF" stroke-width="0.7387" stroke-miterlimit="3.8637" d="M48.527,9.849
			c0.375,0.13,0.573,0.54,0.443,0.915l-0.399,1.15c-0.13,0.375-0.54,0.573-0.916,0.443l-5.38-1.87
			c-0.375-0.13-0.573-0.54-0.443-0.915l0.4-1.15c0.13-0.375,0.54-0.573,0.915-0.443L48.527,9.849L48.527,9.849z"/>
		<polygon fill="#231F20" stroke="#231F20" stroke-width="0.5379" stroke-miterlimit="3.8637" points="55.966,6.322 55.723,9.049 
			54.276,6.725 51.993,8.235 52.907,5.655 50.303,4.811 52.891,3.917 51.927,1.354 54.238,2.821 55.641,0.469 55.936,3.191 
			58.649,2.821 56.705,4.749 58.686,6.64 55.966,6.322 		"/>
		<polygon fill="#FFF100" stroke="#231F20" stroke-width="0.5379" stroke-miterlimit="3.8637" points="58.111,6.371 55.783,6.098 
			55.576,8.432 54.337,6.443 52.383,7.736 53.167,5.527 50.938,4.805 53.151,4.04 52.328,1.847 54.306,3.102 55.506,1.089 
			55.758,3.419 58.08,3.102 56.417,4.752 58.111,6.371 		"/>
		<polygon fill="#EC1C24" points="55.347,5.56 55.223,6.95 54.485,5.766 53.321,6.535 53.788,5.221 52.461,4.791 53.779,4.335 
			53.288,3.029 54.466,3.776 55.181,2.578 55.331,3.965 56.713,3.776 55.723,4.759 56.732,5.722 55.347,5.56 		"/>
		<path d="M48.278,9.857c0.26,0.091,0.43,0.326,0.45,0.585l-4.985-1.733c-0.352-0.122-0.735,0.064-0.858,0.416l-0.375,1.076
			c-0.031,0.09-0.042,0.183-0.035,0.273l-0.057-0.021c-0.352-0.122-0.537-0.506-0.416-0.857l0.375-1.077
			c0.122-0.352,0.506-0.538,0.858-0.416L48.278,9.857L48.278,9.857z"/>
	</g>
</g>
</svg>
