<?xml version="1.0" encoding="utf-8"?>
<!-- Generator: Adobe Illustrator 24.0.1, SVG Export Plug-In . SVG Version: 6.00 Build 0)  -->
<svg version="1.1" id="Livello_1" xmlns="http://www.w3.org/2000/svg" xmlns:xlink="http://www.w3.org/1999/xlink" x="0px" y="0px"
	 viewBox="0 0 120 30" style="enable-background:new 0 0 120 30;" xml:space="preserve">
<style type="text/css">
	.st0{display:none;}
	.st1{display:inline;}
	.st2{fill:#FFFFFF;}
</style>
<g class="st0">
	<g class="st1">
		<path d="M99.3,31.5c-2.1-0.4-3.8-1.1-5.2-2.2c-2.6-2.1-4-4.7-4.2-8c-0.1-1.8,0.2-3.5,0.9-5.2c-0.2,0-0.3,0-0.5,0s-0.5,0-0.7,0l0,0
			c0,0,0,0,0,0.1c0,1.3,0,2.6,0,4v3.6c0,2.1,0,4.2,0,6.2c0,0.3,0,0.7-0.3,0.9c-0.3,0.3-0.6,0.3-0.9,0.3c-1.6,0-3.2,0-4.8,0
			s-3.3,0-4.9,0c-0.7,0-1.1-0.3-1.3-1c-0.1-0.5-0.3-0.9-0.4-1.4c-0.1-0.4-0.2-0.7-0.3-1.1c0-0.1-0.1-0.1-0.1-0.2c-0.6,0-1.1,0-1.6,0
			s-1.1,0-1.6,0h-0.1c0,0,0,0,0,0.1c-0.1,0.4-0.2,0.8-0.3,1.1c-0.2,0.5-0.3,1-0.4,1.4C72.4,30.7,72,31,71.4,31c-0.7,0-1.4,0-2.1,0
			h-2.5c-0.2,0-0.6,0-0.8-0.3l0,0c-0.6,0.3-1.2,0.5-1.8,0.5c-0.1,0-0.2,0-0.3,0c-1.6-0.2-2.8-1.1-3.5-2.7l-2.3-5.4v0.5
			c0,2.1,0,4.1,0,6.2c0,0.3,0,0.7-0.3,1s-0.6,0.3-0.9,0.3c-0.7,0-1.2,0-1.8,0c-0.7,0-1.3,0-2,0l0,0c-0.2,0-0.6,0-0.8-0.3
			C52,30.5,52,30.1,52,30c0-2.5,0-5,0-7.5c0-3.1,0-6.2,0-9.3c0-1.6,1.8-3.3,3.5-3.5c0.2,0,0.3,0,0.5,0c1.8,0,3.1,1,3.8,2.7
			s1.4,3.4,2.1,5.2V15c0-1.3,0-2.6,0-3.9c0-0.2,0-0.6,0.3-0.9c0.3-0.3,0.6-0.3,0.8-0.3c0.7,0,1.3,0,2,0c0.6,0,1.2,0,1.8,0l0,0
			c0.2,0,0.6,0,0.9,0.3c0.3,0.3,0.3,0.7,0.3,0.9c0,4.5,0,8.4,0,12l1.2-3.9c0.7-2.2,1.3-4.3,2-6.5c0.6-1.9,2.1-3,3.9-3
			c0.9,0,1.8,0.3,2.5,0.9c0.7,0.6,1.2,1.3,1.5,2.4c0.2,0.6,0.3,1.2,0.5,1.7c0-1.2,0-2.5,0-3.7c0-0.3,0.1-0.6,0.3-0.8
			s0.4-0.3,0.8-0.3c1.9,0,3.8,0,5.7,0s3.8,0,5.7,0c0.4,0,0.6,0.1,0.8,0.3c0.3,0.3,0.3,0.6,0.3,0.9c0,0.5,0,1.1,0,1.6
			c2.2-2.1,4.7-3.1,7.4-3.1c1.1,0,2.3,0.2,3.4,0.6c3.2,1,5.4,2.9,6.6,5.8v-2.4c0-1.8,1.6-3.5,3.5-3.6c0.6,0,1.3,0,1.9,0h2.9
			c0.2,0,0.3,0,0.4,0.1c1.7,0.6,4.2,1.7,5.2,4.5c1,2.6-0.1,5.5-2.5,7.2c-0.2,0.1-0.2,0.2-0.2,0.2l0,0c0,0,0,0.1,0.1,0.2
			c1,1.7,2,3.5,3,5.2l1.2,2.1c0.1,0.1,0.2,0.2,0.2,0.4l0.2,0.3v0.9h-2c-1.4,0-2.7,0-4.1,0l0,0c-0.6,0-1-0.2-1.3-0.8
			c-0.7-1.4-1.4-2.7-2.1-4c0,1.2,0,2.5,0,3.7c0,0.3,0,0.6-0.3,0.8c-0.2,0.2-0.4,0.3-0.7,0.3c-0.7,0-1.4,0-2.2,0c-0.7,0-1.5,0-2.2,0
			l0,0c-0.3,0-0.6-0.1-0.8-0.3c-0.3-0.3-0.3-0.7-0.3-0.8c0-0.4,0-0.9,0-1.3v-3.6c-0.8,1.7-2,3.2-3.6,4.3c-1.3,0.9-2.8,1.6-4.7,1.9
			l0,0h-2.9V31.5z M83.2,26.7c0-3.5,0-7,0-10.6c0-0.1,0-0.1,0-0.1l0.1,0.1l-0.1-0.5v0.5c-0.2,0-0.4,0-0.7,0h-1.1c-0.2,0-0.5,0-0.7,0
			l0,0c-0.3,0-0.6-0.1-0.8-0.2C81,19.4,83.2,26.7,83.2,26.7z M100.7,16.6c-2.1,0-3.9,1.8-3.9,4c0,1.1,0.4,2.1,1.2,2.9
			c0.7,0.7,1.7,1.1,2.8,1.1c2.2,0,3.9-1.8,3.9-4S103,16.6,100.7,16.6v-0.5V16.6z M75.1,21.9c0-0.1,0-0.2-0.1-0.3
			c0,0.1,0,0.2-0.1,0.3C75,21.9,75.1,21.9,75.1,21.9z M117.1,16.2c0,0.6,0,1.1,0,1.7l0,0c0.5-0.2,0.9-0.4,1.2-0.8
			c0.1-0.2,0.2-0.4-0.1-0.7c-0.1-0.1-0.3-0.2-0.6-0.2c-0.1,0-0.2,0-0.3,0H117.1C117.1,16.2,117.1,16.2,117.1,16.2z"/>
		<path d="M100.6,10.1c1.1,0,2.1,0.2,3.3,0.5c4.3,1.4,6.6,4.6,7.3,9c0-2,0-4,0-6c0-1.5,1.4-3,3-3.1c0.6,0,1.3,0,1.9,0
			c1,0,1.9,0,2.9,0l0,0h0.1c0.1,0,0.1,0,0.2,0c2.2,0.8,4,1.9,4.9,4.2s-0.1,5.1-2.3,6.6c-0.5,0.3-0.5,0.6-0.2,1.1
			c1.4,2.4,2.8,4.9,4.2,7.4c0.1,0.2,0.2,0.4,0.4,0.6c0,0.1,0,0.2,0,0.2c-1.9,0-3.7,0-5.6,0l0,0c-0.4,0-0.6-0.1-0.8-0.5
			c-0.9-1.7-1.7-3.3-2.6-5c-0.1-0.2-0.2-0.4-0.4-0.6c-0.1,0.2-0.1,0.4-0.1,0.6c0,1.6,0,3.2,0,4.8c0,0.4-0.1,0.6-0.5,0.6l0,0
			c-0.7,0-1.4,0-2.2,0c-0.7,0-1.5,0-2.2,0l0,0c-0.4,0-0.5-0.2-0.5-0.6c0-0.6,0-1.3,0-1.9c0-1.1,0-2.2,0-3.3c0-1.1,0-2.2,0-3.3
			c-0.4,3.2-1.8,5.7-4.4,7.6c-1.4,1-2.9,1.5-4.5,1.8c-1,0-1.9,0-2.9,0c-1.8-0.3-3.4-1-4.8-2.1c-2.4-2-3.8-4.5-4-7.6
			c-0.1-1.8,0.2-3.5,1-5.1c0.2-0.4,0.1-0.5-0.2-0.5h-0.1c-0.2,0-0.5,0-0.7,0s-0.4,0-0.7,0H90c-0.4,0-0.5,0.2-0.5,0.6
			c0,1.8,0,3.6,0,5.4c0,2.8,0,5.6,0,8.4c0,0.5-0.2,0.7-0.7,0.7l0,0c-1.6,0-3.2,0-4.7,0c-1.6,0-3.3,0-4.9,0l0,0
			c-0.5,0-0.7-0.2-0.8-0.6c-0.2-0.8-0.5-1.6-0.8-2.5C77.5,27.2,77.4,27,77,27l0,0c-0.5,0-1,0-1.5,0s-1.1,0-1.6,0l0,0
			c-0.3,0-0.5,0.1-0.6,0.5c-0.3,0.9-0.5,1.7-0.8,2.6c-0.1,0.4-0.3,0.5-0.7,0.5l0,0c-0.7,0-1.4,0-2,0c-0.8,0-1.6,0-2.4,0h-0.1
			c-0.3,0-0.6,0-0.5-0.6c-0.7,0.5-1.4,0.8-2.2,0.8c-0.1,0-0.2,0-0.3,0c-1.5-0.1-2.5-1-3.1-2.4c-1-2.3-2-4.6-3-7
			c-0.1-0.1-0.1-0.3-0.3-0.4c0,0.2,0,0.4,0,0.6c0,2.8,0,5.5,0,8.3c0,0.6-0.2,0.8-0.7,0.8c0,0,0,0-0.1,0c-0.6,0-1.2,0-1.7,0
			c-0.7,0-1.4,0-2,0l0,0c-0.4,0-0.6-0.1-0.6-0.6c0-5.6,0-11.2,0-16.9c0-1.3,1.6-2.8,3.1-3c0.1,0,0.3,0,0.4,0c1.6,0,2.7,0.8,3.3,2.4
			c0.9,2.3,1.8,4.6,2.8,6.9c0.1,0.1,0.1,0.3,0.3,0.5c0-1.2,0-2.4,0-3.6c0-1.7,0-3.5,0-5.2c0-0.5,0.2-0.7,0.6-0.7l0,0
			c0.6,0,1.3,0,1.9,0c0.6,0,1.2,0,1.9,0l0,0c0.5,0,0.6,0.2,0.6,0.7c0,5.1,0,10.1,0,15.2c0.4-1.3,0.8-2.7,1.2-4
			c1-3.2,1.9-6.3,2.9-9.5c0.5-1.7,2-2.7,3.4-2.7c0.8,0,1.5,0.3,2.2,0.8c0.7,0.6,1.1,1.3,1.3,2.2c1.6,5.3,3.1,10.6,4.7,15.9
			c0.1,0.3,0.2,0.5,0.3,0.8c0-4.6,0-9.2,0-13.8c0-0.4-0.2-0.5-0.5-0.5l0,0c-0.2,0-0.4,0-0.7,0c-0.4,0-0.7,0-1.1,0
			c-0.2,0-0.5,0-0.7,0l0,0c-0.4,0-0.6-0.2-0.5-0.6c0-1.3,0-2.7,0-4c0-0.4,0.2-0.5,0.5-0.5l0,0c1.9,0,3.8,0,5.7,0s3.8,0,5.7,0l0,0
			c0.5,0,0.6,0.2,0.6,0.6c0,0.9,0,1.8,0,2.9C95,11.5,97.6,10.1,100.6,10.1 M117.2,15.7c-0.1,0-0.2,0-0.3,0c-0.2,0-0.3,0.1-0.3,0.4
			c0,0.7,0,1.5,0,2.2c0,0.1,0,0.3,0.1,0.3h0.1c0.6-0.4,1.4-0.6,1.8-1.2c0.3-0.5,0.2-0.9-0.2-1.3c-0.2-0.2-0.5-0.3-0.9-0.3
			C117.5,15.6,117.3,15.6,117.2,15.7L117.2,15.7 M100.8,25.1L100.8,25.1c2.5,0,4.4-2,4.4-4.5s-1.9-4.5-4.4-4.5l0,0
			c-2.4,0-4.4,2-4.4,4.5C96.4,23.1,98.3,25.1,100.8,25.1 M75,22.4c0.2,0,0.3,0,0.5-0.1s0.2-0.2,0.1-0.4c-0.2-0.8-0.3-1.6-0.5-2.4H75
			c-0.2,0.8-0.4,1.6-0.6,2.4c0,0.1-0.1,0.3,0.1,0.4C74.7,22.4,74.9,22.4,75,22.4 M100.6,9.1c-2.5,0-4.8,0.9-6.9,2.6
			c0-0.2,0-0.4,0-0.5c0-0.2,0-0.8-0.4-1.2c-0.3-0.3-0.7-0.4-1.2-0.4c-1.9,0-3.8,0-5.7,0s-3.8,0-5.7,0c-0.5,0-0.9,0.1-1.1,0.4
			c-0.3,0.3-0.4,0.7-0.4,1.1c0,0.2,0,0.4,0,0.7c-0.3-0.6-0.7-1.1-1.2-1.5c-0.8-0.7-1.8-1-2.8-1c-2,0-3.7,1.3-4.4,3.4
			c-0.7,2.2-1.4,4.4-2,6.5c-0.1,0.3-0.2,0.5-0.2,0.8c0-2.7,0-5.5,0-8.7c0-0.2,0-0.8-0.4-1.3c-0.4-0.4-1-0.4-1.2-0.4l0,0l0,0
			c-0.6,0-1.2,0-1.8,0s-1.3,0-1.9,0l0,0l0,0c-0.2,0-0.8,0-1.2,0.4s-0.4,1-0.4,1.2c0,1.3,0,2.5,0,3.8v0.1c-0.4-0.9-0.7-1.9-1.1-2.8
			c-0.8-2-2.3-3-4.3-3c-0.2,0-0.3,0-0.5,0c-2,0.2-4,2.1-4,3.9c0,3.1,0,6.2,0,9.3c0,2.5,0,5,0,7.5c0,0.5,0.1,0.9,0.4,1.1
			c0.3,0.3,0.7,0.4,1.1,0.4l0,0h0.1c0.7,0,1.3,0,2,0c0.6,0,1.1,0,1.7,0h0.1c0.2,0,0.8,0,1.2-0.5c0.4-0.4,0.5-0.9,0.4-1.3
			c0-1.4,0-2.8,0-4.2c0.4,1.1,0.9,2.1,1.3,3.2c0.8,1.8,2.1,2.8,3.9,3c0.1,0,0.3,0,0.4,0c0.6,0,1.2-0.1,1.8-0.4
			c0.4,0.2,0.7,0.2,0.9,0.2h0.1h0.5c0.6,0,1.3,0,1.9,0c0.7,0,1.4,0,2,0l0,0c0.9,0,1.5-0.5,1.7-1.3c0.1-0.5,0.3-1,0.4-1.4
			c0.1-0.3,0.2-0.6,0.3-0.9c0.5,0,0.9,0,1.3,0c0.4,0,0.8,0,1.2,0c0.1,0.3,0.2,0.6,0.3,0.9c0.1,0.5,0.3,0.9,0.4,1.4
			c0.2,0.6,0.6,1.3,1.8,1.3c1.6,0,3.3,0,4.9,0c1.6,0,3.2,0,4.7,0l0,0c0.4,0,0.9,0,1.3-0.4c0.4-0.4,0.4-0.9,0.4-1.3
			c0-1.8,0-3.5,0-5.3c0.7,1.9,2,3.6,3.7,5c1.4,1.1,3.2,1.9,5.3,2.3h0.1h0.1h2.9h0.1h0.1c2-0.4,3.6-1,4.9-2c1.1-0.8,2.1-1.8,2.8-2.9
			V28v0.6c0,0.4,0,0.9,0,1.3c0,0.5,0.1,0.9,0.4,1.2c0.3,0.3,0.6,0.4,1.1,0.4c0.8,0,1.5,0,2.2,0s1.4,0,2.1,0l0,0
			c0.5,0,0.9-0.1,1.1-0.4c0.4-0.4,0.4-0.9,0.4-1.2c0-0.6,0-1.1,0-1.7c0.4,0.7,0.8,1.5,1.2,2.2s0.9,1.1,1.7,1.1c1.4,0,2.8,0,4.2,0
			h1.5h1v-1v-0.2V30l-0.2-0.2l-0.1-0.2c-0.1-0.1-0.1-0.2-0.2-0.3l-1.3-2.2c-1-1.7-1.9-3.3-2.9-5c2.5-1.9,3.6-5,2.6-7.7
			c-1.1-2.9-3.7-4.1-5.5-4.8c-0.2-0.1-0.4-0.1-0.5-0.1H119c-0.5,0-0.9,0-1.4,0s-1,0-1.5,0c-0.6,0-1.3,0-1.9,0c-2.1,0-3.9,2-3.9,4.1
			V14c-1.4-2.1-3.4-3.5-6-4.3C102.9,9.3,101.7,9.1,100.6,9.1L100.6,9.1z M80.7,16.6L80.7,16.6c0.3,0,0.5,0,0.7,0h0.5h0.5
			c0.1,0,0.1,0,0.2,0c0,2.2,0,4.4,0,6.6C82,21.1,81.4,18.9,80.7,16.6L80.7,16.6z M117.6,16.6L117.6,16.6c0.2,0,0.2,0,0.2,0.1l0,0
			c-0.1,0.1-0.2,0.2-0.3,0.3C117.6,16.9,117.6,16.8,117.6,16.6L117.6,16.6z M100.8,25.1v-1c-0.9,0-1.8-0.4-2.4-1
			c-0.7-0.7-1-1.5-1-2.5c0-1.9,1.6-3.5,3.4-3.5c1.9,0,3.4,1.6,3.4,3.5s-1.5,3.5-3.4,3.5V25.1L100.8,25.1z"/>
	</g>
	<g class="st1">
		<path d="M3.3,31.4c-0.4,0-0.9,0-1.3-0.1c-3.5-0.4-6.4-1.4-8.9-3.1c-3.6-2.5-5.8-6.1-6.6-10.9c0-0.1,0-0.2-0.1-0.3v-0.2v-3.6
			l0.2-1.3c1-6.6,4.7-11,10.9-13.1c1.6-0.5,3.2-0.8,4.9-1h4.3c0.8,0.1,1.2,0.5,1.2,1.4c0,1.4,0,2.8,0,4.2v1.8c0,0.6,0,1.3-1,1.3
			c-0.1,0-0.2,0-0.3,0c-0.4,0-0.8,0-1.1,0C3.8,6.5,2.4,6.7,1.1,7C-2,7.8-3.6,9.7-4,13c-0.1,1.2-0.2,2.5,0,3.8c0.3,2,1.5,3.5,3.8,4.7
			c0.5,0.3,1.1,0.5,1.6,0.6c0-1.5,0-2.9,0-4.4v-6.6c0-1,0.3-1.3,1.3-1.3h3.9c1,0,2.1,0,3.1,0l0,0c0.3,0,0.7,0,0.9,0.3
			c0.3,0.3,0.3,0.7,0.3,0.9c0,5,0,10.1,0,15.1c0,0.8-0.2,1.4-0.7,2C8.5,30.3,6.1,31.4,3.3,31.4z"/>
		<path d="M6.8-1.7c0.6,0,0.7,0.4,0.7,0.9c0,2,0,4,0,6C7.5,5.9,7.5,6,7,6C6.9,6,6.8,6,6.7,6C6.3,6,5.9,6,5.6,6c-1.5,0-3,0.1-4.5,0.5
			c-3.3,0.9-5.1,3-5.5,6.4c-0.1,1.3-0.2,2.6,0,3.9c0.4,2.5,2,4,4.1,5c0.5,0.3,1.1,0.5,1.7,0.7c0.2,0.1,0.3,0.1,0.4,0.1
			C2,22.6,2,22.4,2,22c0-1.7,0-3.4,0-5.2c0-2,0-3.9,0-5.9c0-0.7,0-0.8,0.8-0.8c0.2,0,0.5,0,0.7,0c1,0,2.1,0,3.1,0c1.1,0,2.1,0,3.2,0
			l0,0c0.5,0,0.7,0.2,0.7,0.7c0,5,0,10.1,0,15.1c0,0.6-0.2,1.2-0.6,1.7c-1.8,2.1-4,3.1-6.6,3.1c-0.4,0-0.8,0-1.2-0.1
			C-1,30.2-4,29.3-6.6,27.5c-3.7-2.6-5.7-6.2-6.3-10.5c0-0.1-0.1-0.3-0.1-0.4c0-1.2,0-2.4,0-3.6c0.1-0.4,0.1-0.8,0.2-1.2
			c1-6.4,4.4-10.7,10.6-12.7c1.6-0.5,3.2-0.8,4.8-1C4-1.7,5.4-1.7,6.8-1.7 M6.9-2.7L6.9-2.7H2.6H2.5H2.4c-1.7,0.2-3.4,0.5-5,1
			C-8.9,0.4-12.7,5-13.8,11.8l-0.1,0.9L-14,13v0.1v0.1v3.6v0.1V17v0.2c0,0.1,0,0.2,0,0.2c0.8,4.9,3,8.6,6.8,11.2
			c2.6,1.8,5.5,2.8,9.1,3.2c0.5,0.1,0.9,0.1,1.4,0.1c3,0,5.4-1.2,7.4-3.5c0.6-0.7,0.8-1.4,0.8-2.3c0-5.3,0-10.3,0-15.1
			c0-0.2,0-0.8-0.4-1.3c-0.4-0.4-0.9-0.4-1.3-0.4c-1.1,0-2.1,0-3.2,0H5.1H3.6H2.9c-1.3,0-1.8,0.5-1.8,1.8c0,1.2,0,2.4,0,3.7V17v0.9
			c0,1.2,0,2.3,0,3.5c-0.3-0.1-0.6-0.2-0.9-0.4c-2.1-1.1-3.3-2.4-3.5-4.3c-0.2-1.2-0.1-2.4,0-3.6C-3,10-1.5,8.3,1.4,7.6
			C2.6,7.3,4,7.1,5.6,7.1c0.4,0,0.7,0,1.1,0c0.1,0,0.2,0,0.3,0c1.5,0,1.5-1.2,1.5-1.8s0-1.2,0-1.8c0-1.4,0-2.8,0-4.2
			C8.6-2.4,7.4-2.7,6.9-2.7L6.9-2.7L6.9-2.7z"/>
	</g>
	<g class="st1">
		<path d="M35.7,31.4c-1.5,0-2.8-1-3.2-2.7c-0.3-0.9-0.5-1.8-0.8-2.7v3.9c0,1.1-0.2,1.3-1.3,1.3h-4.2c-1.3,0-2.5,0-3.8,0
			c-0.7,0-1.1-0.3-1.3-1c-0.1-0.4-0.2-0.8-0.4-1.2c-0.1-0.4-0.2-0.8-0.4-1.2c0-0.1-0.1-0.2-0.1-0.2l0,0c0,0,0,0-0.1,0
			c-0.5,0-1,0-1.5,0s-1,0-1.6,0h-0.1c0,0,0,0,0,0.1c-0.1,0.4-0.2,0.8-0.4,1.2c-0.1,0.4-0.3,0.9-0.4,1.3c-0.2,0.6-0.6,0.9-1.2,0.9
			c-0.8,0-1.6,0-2.3,0c-0.7,0-1.4,0-2.2,0l0,0c-0.2,0-0.6,0-0.9-0.3c-0.2-0.3-0.2-0.7-0.1-1c1.2-3.8,2.3-7.7,3.5-11.5l1.2-4
			c0.2-0.5,0.3-1.1,0.5-1.6c0.6-1.8,2.1-3,3.9-3c2,0,3.4,1.2,4,3.1c0.8,2.8,1.6,5.5,2.5,8.3l0.4,1.4v-6.9c0-0.2,0-0.4,0-0.6
			c0-0.4,0-0.8,0-1.2c-0.2-1.9,1.7-3.8,3.4-4.1c0.3,0,0.5-0.1,0.7-0.1c1.8,0,3.2,1.1,3.8,2.8c0.6,2,1.2,4,1.8,6.1l0.5,1.6l2.2-7.4
			c0.1-0.4,0.2-0.7,0.4-1.1c0.7-1.3,2-2.1,3.4-2.1c0.3,0,0.6,0,0.9,0.1c1.8,0.4,3.2,2.1,3.2,3.8c0,5.4,0,10.8,0,16.2
			c0,1-0.3,1.3-1.3,1.3h-3.6c-1.1,0-1.3-0.2-1.3-1.3v-3.7l-0.7,2.5C38.5,30.3,37.3,31.4,35.7,31.4L35.7,31.4z M18.7,21.9l-0.1-0.3
			C18.7,21.6,18.7,21.9,18.7,21.9z"/>
		<path d="M41.7,10.3c0.3,0,0.6,0,0.8,0.1c1.6,0.4,2.8,1.8,2.8,3.3c0,5.4,0,10.8,0,16.2c0,0.7,0,0.8-0.8,0.8s-1.6,0-2.4,0
			c-0.4,0-0.7,0-1.1,0c-0.8,0-0.8,0-0.8-0.8c0-2.1,0-4.2,0-6.3c0-0.2,0-0.4,0-0.6h-0.1c-0.4,1.2-0.7,2.5-1.1,3.7
			c-0.2,0.6-0.3,1.2-0.5,1.8c-0.4,1.5-1.5,2.4-2.8,2.4l0,0c-1.3,0-2.3-0.9-2.8-2.3c-0.6-1.9-1.1-3.9-1.7-5.8h-0.1c0,2.4,0,4.7,0,7.1
			c0,0.8,0,0.8-0.8,0.8c-0.2,0-0.3,0-0.5,0c-1.2,0-2.4,0-3.7,0c-1.3,0-2.6,0-3.8,0l0,0c-0.5,0-0.7-0.2-0.8-0.6
			c-0.2-0.8-0.5-1.6-0.7-2.4c-0.1-0.4-0.3-0.5-0.6-0.5l0,0c-0.5,0-1,0-1.5,0s-1,0-1.5,0l0,0c-0.4,0-0.5,0.2-0.6,0.5
			c-0.2,0.8-0.5,1.7-0.8,2.5c-0.1,0.4-0.3,0.6-0.7,0.6l0,0c-0.8,0-1.5,0-2.3,0c-0.7,0-1.5,0-2.2,0l0,0c-0.5,0-0.6-0.2-0.4-0.6
			c1.5-5,3.1-10.1,4.6-15.1c0.2-0.7,0.4-1.4,0.6-2c0.5-1.6,1.9-2.7,3.4-2.7c0,0,0,0,0.1,0c1.7,0,2.9,1,3.5,2.8
			c1.2,4.1,2.4,8.2,3.6,12.3c0.1,0.2,0.1,0.4,0.2,0.5c0-3.4,0-6.7,0-10.1c0-0.6,0.1-1.3,0-1.9c-0.2-1.6,1.4-3.3,3-3.5
			c0.2,0,0.4-0.1,0.7-0.1c1.6,0,2.8,0.9,3.3,2.5c0.9,2.9,1.7,5.8,2.6,8.7c0,0.1,0.1,0.2,0.1,0.4c0.2-0.1,0.2-0.3,0.2-0.5
			c0.8-2.8,1.6-5.5,2.4-8.3c0.1-0.3,0.2-0.7,0.4-1C39.3,10.9,40.5,10.3,41.7,10.3 M18.7,22.4c0.2,0,0.3,0,0.5-0.1
			c0.1,0,0.1-0.2,0.1-0.3c-0.2-0.9-0.3-1.7-0.5-2.6h-0.1c-0.2,0.9-0.4,1.7-0.6,2.6c0,0.1-0.1,0.3,0.1,0.4
			C18.3,22.4,18.5,22.4,18.7,22.4 M41.7,9.3c-1.7,0-3.1,0.9-3.9,2.4c-0.2,0.4-0.3,0.7-0.4,1.1c-0.4,1.3-0.8,2.7-1.2,4
			c-0.2,0.6-0.3,1.1-0.5,1.7c-0.6-2-1.2-4-1.8-6c-0.6-2-2.2-3.2-4.2-3.2c-0.3,0-0.5,0-0.8,0.1c-2,0.3-4.1,2.4-3.8,4.6
			c0,0.4,0,0.7,0,1.1c0,0.2,0,0.4,0,0.6v3.5c-0.6-2.1-1.3-4.3-1.9-6.4s-2.3-3.4-4.4-3.5h-0.1c-2,0-3.7,1.3-4.3,3.4
			c-0.2,0.5-0.3,1.1-0.5,1.6l-0.1,0.4l-1.1,3.8c-1.2,3.8-2.3,7.6-3.5,11.3c-0.1,0.2-0.3,0.9,0.1,1.4s1,0.5,1.3,0.5l0,0l0,0
			c0.7,0,1.4,0,2.2,0c0.8,0,1.5,0,2.3,0l0,0c0.5,0,1.4-0.2,1.7-1.3c0.1-0.4,0.3-0.9,0.4-1.3c0.1-0.3,0.2-0.7,0.3-1
			c0.4,0,0.9,0,1.3,0s0.8,0,1.3,0c0.1,0.3,0.2,0.7,0.3,1c0.1,0.4,0.3,0.8,0.4,1.2c0.2,0.9,0.9,1.4,1.8,1.4c1.3,0,2.6,0,3.9,0h1.8
			h1.8h0.5c1.3,0,1.8-0.5,1.8-1.8v-0.5c0.6,1.5,2,2.5,3.5,2.5c1.6,0,2.8-0.9,3.5-2.4v0.3c0,1.4,0.4,1.8,1.8,1.8h1.1
			c0.8,0,1.6,0,2.4,0c1.3,0,1.8-0.5,1.8-1.8v-0.3c0-5.3,0-10.6,0-15.9c0-2-1.6-3.8-3.6-4.3C42.4,9.3,42.1,9.3,41.7,9.3L41.7,9.3z"/>
	</g>
	<g class="st1">
		<path d="M46.6,31.2c-0.2,0-0.6,0-0.9-0.3s-0.3-0.6-0.3-0.9c0-6.3,0-12.5,0-18.8c0-0.2,0-0.6,0.3-0.9c0.2-0.2,0.5-0.3,0.8-0.3
			c0.8,0,1.5,0,2.2,0s1.4,0,2.2,0l0,0c0.4,0,0.6,0.1,0.8,0.3c0.3,0.3,0.3,0.6,0.3,0.9c0,2.4,0,4.8,0,7.1v11.5c0,1.1-0.2,1.3-1.4,1.3
			h-2.3C47.8,31.2,47.2,31.2,46.6,31.2L46.6,31.2z"/>
		<path d="M50.9,10.5c0.5,0,0.6,0.2,0.6,0.7c0,3.2,0,6.3,0,9.5c0,3.1,0,6.1,0,9.2c0,0.8,0,0.8-0.9,0.8h-0.1c-0.7,0-1.5,0-2.2,0
			c-0.6,0-1.1,0-1.7,0l0,0c-0.5,0-0.7-0.2-0.7-0.7c0-6.3,0-12.5,0-18.8c0-0.5,0.1-0.6,0.6-0.6l0,0c0.7,0,1.5,0,2.2,0
			C49.5,10.6,50.2,10.6,50.9,10.5L50.9,10.5 M50.9,9.5L50.9,9.5L50.9,9.5c-0.8,0-1.5,0-2.2,0s-1.5,0-2.2,0l0,0
			c-0.5,0-0.9,0.1-1.2,0.4c-0.4,0.4-0.4,1-0.4,1.2c0,7,0,13.1,0,18.8c0,0.2,0,0.8,0.4,1.3c0.4,0.4,1,0.4,1.2,0.4l0,0h0.1
			c0.6,0,1.1,0,1.7,0h1.1h1.1h0.1c1.4,0,1.9-0.4,1.9-1.8v-7.3v-1.9v-2.2c0-2.4,0-4.8,0-7.2c0-0.2,0-0.8-0.4-1.2
			C51.8,9.7,51.4,9.5,50.9,9.5L50.9,9.5z"/>
	</g>
</g>
<g>
	<path class="st2" d="M95.8,28.3c-1.5-0.3-2.8-0.8-4-1.8c-2-1.7-3.2-3.8-3.3-6.4c-0.1-1.5,0.2-2.9,0.8-4.3c0.2-0.3,0.1-0.5-0.3-0.4
		c-0.4,0-0.8,0-1.2,0c-0.3,0-0.5,0.2-0.5,0.5c0,1.5,0,3,0,4.5c0,2.3,0,4.7,0,7c0,0.5-0.2,0.6-0.6,0.6c-2.7,0-5.4,0-8,0
		c-0.4,0-0.6-0.1-0.7-0.5c-0.2-0.7-0.4-1.3-0.7-2.1c-0.1-0.3-0.2-0.4-0.5-0.4c-0.8,0-1.8,0-2.6,0c-0.3,0-0.4,0.1-0.5,0.4
		c-0.3,0.8-0.4,1.4-0.7,2.2c-0.1,0.3-0.3,0.4-0.6,0.4c-1.3,0-2.4,0-3.7,0c-0.3,0-0.6,0-0.5-0.5c-0.7,0.5-1.3,0.8-2,0.7
		c-1.3-0.1-2.1-0.8-2.6-2c-0.8-1.9-1.7-3.8-2.5-5.9c-0.1-0.1-0.1-0.3-0.3-0.3c0,0.2,0,0.3,0,0.5c0,2.3,0,4.6,0,6.9
		c0,0.5-0.2,0.7-0.7,0.7c-1.1,0-2.1,0-3.2,0c-0.3,0-0.5-0.1-0.5-0.5c0-4.7,0-9.4,0-14.1c0-1.1,1.3-2.3,2.6-2.5
		c1.5-0.2,2.6,0.6,3.2,2c0.8,1.9,1.5,3.8,2.3,5.8c0.1,0.1,0.1,0.3,0.3,0.4c0-1,0-2,0-3c0-1.4,0-2.9,0-4.3c0-0.4,0.2-0.6,0.6-0.6
		c1.1,0,2.1,0,3.2,0c0.4,0,0.6,0.2,0.6,0.6c0,4.3,0,8.4,0,12.7c0.3-1.1,0.7-2.3,1-3.3c0.8-2.7,1.6-5.3,2.4-7.9
		c0.7-2.2,3-2.9,4.7-1.6c0.6,0.5,0.9,1.1,1.1,1.8c1.3,4.4,2.6,8.9,3.9,13.3c0.1,0.3,0.2,0.4,0.3,0.7c0-3.8,0-7.7,0-11.5
		c0-0.3-0.2-0.4-0.4-0.4c-0.7,0-1.3,0-2,0c-0.3,0-0.5-0.2-0.5-0.5c0-1.1,0-2.3,0-3.3c0-0.3,0.2-0.4,0.4-0.4c3.2,0,6.4,0,9.5,0
		c0.4,0,0.5,0.2,0.5,0.5c0,0.8,0,1.5,0,2.4c2.6-2.8,5.7-3.9,9.4-2.8c3.6,1.2,5.5,3.8,6.1,7.5c0-1.7,0-3.3,0-5c0-1.3,1.2-2.5,2.5-2.6
		c1.3,0,2.7,0,4,0c0.1,0,0.2,0,0.3,0c1.8,0.7,3.3,1.6,4.1,3.5c0.8,1.9-0.1,4.3-1.9,5.5c-0.4,0.3-0.4,0.5-0.2,0.9
		c1.2,2,2.3,4.1,3.5,6.2c0.1,0.2,0.2,0.3,0.3,0.5c0,0.1,0,0.2,0,0.2c-1.6,0-3.1,0-4.7,0c-0.3,0-0.6-0.1-0.7-0.4
		c-0.8-1.4-1.4-2.8-2.2-4.2c-0.1-0.2-0.2-0.3-0.3-0.5c-0.1,0.2-0.1,0.3-0.1,0.5c0,1.3,0,2.7,0,4c0,0.3-0.1,0.5-0.4,0.5
		c-1.3,0-2.4,0-3.7,0c-0.3,0-0.4-0.2-0.4-0.5c0-0.5,0-1.1,0-1.6c0-0.9,0-1.8,0-2.8c0-0.9,0-1.8,0-2.8c-0.3,2.7-1.5,4.8-3.7,6.4
		c-1.2,0.8-2.4,1.3-3.8,1.5C97.4,28.3,96.6,28.3,95.8,28.3z M100.7,19.7c0-2.1-1.6-3.8-3.7-3.8c-2,0-3.7,1.7-3.7,3.8
		s1.6,3.8,3.7,3.8C99,23.4,100.7,21.8,100.7,19.7z M110.7,15.6c-0.2,0-0.6-0.2-0.6,0.3c0,0.6,0,1.3,0,1.8c0,0.2,0,0.3,0.3,0.2
		c0.5-0.3,1.2-0.5,1.5-1c0.3-0.4,0.2-0.8-0.2-1.1C111.6,15.6,111.2,15.5,110.7,15.6z M75.6,18.7L75.6,18.7c-0.3,0.7-0.4,1.3-0.6,2
		c0,0.1-0.1,0.3,0.1,0.3c0.3,0.1,0.5,0.1,0.8,0c0.2-0.1,0.2-0.2,0.1-0.3C75.9,20.2,75.7,19.5,75.6,18.7z"/>
	<path class="st2" d="M18.4,1C18.9,1,19,1.3,19,1.8c0,1.7,0,3.3,0,5c0,0.7,0,0.7-0.7,0.7c-1.6-0.1-3.2,0-4.7,0.4
		c-2.8,0.8-4.3,2.5-4.6,5.4c-0.1,1.1-0.2,2.2,0,3.3c0.3,2.1,1.7,3.3,3.4,4.2c0.4,0.3,0.9,0.4,1.4,0.6c0.5,0.2,0.5,0.1,0.5-0.4
		c0-1.4,0-2.8,0-4.3c0-1.7,0-3.3,0-4.9c0-0.6,0-0.7,0.7-0.7c1.9,0,3.9,0,5.9,0c0.4,0,0.6,0.1,0.6,0.6c0,4.2,0,8.4,0,12.6
		c0,0.5-0.2,1-0.5,1.4c-1.8,2.1-3.9,2.8-6.6,2.6c-2.6-0.3-5.1-1.1-7.3-2.6c-3.1-2.2-4.8-5.2-5.3-8.8c0-0.1-0.1-0.3-0.1-0.3
		c0-1,0-2,0-3c0.1-0.3,0.1-0.7,0.2-1C2.8,7,5.7,3.4,10.8,1.8c1.3-0.4,2.7-0.7,4-0.8C16.1,1,17.3,1,18.4,1z"/>
	<path class="st2" d="M38.8,21.5c0,2,0,3.9,0,5.9c0,0.7,0,0.7-0.7,0.7c-2.3,0-4.4,0-6.7,0c-0.4,0-0.6-0.2-0.7-0.5
		c-0.2-0.7-0.4-1.3-0.6-2c-0.1-0.3-0.3-0.4-0.6-0.4c-0.8,0-1.7,0-2.5,0c-0.3,0-0.4,0.1-0.5,0.4c-0.2,0.7-0.4,1.4-0.7,2.1
		c-0.1,0.3-0.3,0.5-0.6,0.5c-1.3,0-2.5,0-3.8,0c-0.4,0-0.5-0.2-0.4-0.5c1.3-4.2,2.6-8.4,3.8-12.6c0.2-0.6,0.3-1.2,0.5-1.7
		c0.4-1.4,1.6-2.3,2.9-2.3c1.4,0,2.4,0.8,2.9,2.3c1,3.4,2,6.9,3,10.3c0.1,0.2,0.1,0.3,0.2,0.4c0-2.8,0-5.6,0-8.4
		c0-0.5,0.1-1.1,0-1.6c-0.2-1.3,1.2-2.8,2.5-2.9c1.6-0.3,2.8,0.5,3.3,2c0.8,2.4,1.4,4.8,2.2,7.3c0,0.1,0.1,0.2,0.1,0.3
		c0.2-0.1,0.2-0.3,0.2-0.4c0.7-2.3,1.3-4.6,2-6.9c0.1-0.3,0.2-0.6,0.3-0.8c0.6-1.2,1.8-1.8,3.2-1.4c1.3,0.3,2.3,1.5,2.3,2.8
		c0,4.5,0,9,0,13.5c0,0.6,0,0.7-0.7,0.7c-1,0-2,0-3,0c-0.7,0-0.7,0-0.7-0.7c0-1.8,0-3.5,0-5.3c0-0.2,0-0.3,0-0.5h-0.1
		c-0.3,1-0.6,2.1-0.9,3.1c-0.2,0.5-0.3,1-0.4,1.5c-0.3,1.3-1.3,2-2.3,2s-1.9-0.8-2.3-1.9C39.8,24.7,39.4,23.1,38.8,21.5
		C38.9,21.5,38.8,21.5,38.8,21.5z M28.5,18.7C28.4,18.7,28.4,18.7,28.5,18.7c-0.3,0.8-0.4,1.4-0.6,2.2c0,0.1-0.1,0.3,0.1,0.3
		c0.3,0.1,0.6,0.1,0.8,0c0.1,0,0.1-0.2,0.1-0.3C28.7,20.2,28.6,19.4,28.5,18.7z"/>
	<path class="st2" d="M55.8,19.7c0,2.6,0,5.1,0,7.7c0,0.7,0,0.7-0.8,0.7c-1.1,0-2.3,0-3.3,0c-0.4,0-0.6-0.2-0.6-0.6
		c0-5.3,0-10.4,0-15.7c0-0.4,0.1-0.6,0.5-0.5c1.3,0,2.4,0,3.7,0c0.4,0,0.5,0.2,0.5,0.6C55.8,14.5,55.8,17.1,55.8,19.7z"/>
</g>
</svg>
