<?xml version="1.0" encoding="utf-8"?>
<!-- Generator: Adobe Illustrator 16.0.0, SVG Export Plug-In . SVG Version: 6.00 Build 0)  -->
<!DOCTYPE svg PUBLIC "-//W3C//DTD SVG 1.1//EN" "http://www.w3.org/Graphics/SVG/1.1/DTD/svg11.dtd">
<svg version="1.1" id="Layer_1" xmlns="http://www.w3.org/2000/svg" xmlns:xlink="http://www.w3.org/1999/xlink" x="0px" y="0px"
	 width="120px" height="30px" viewBox="0 0 120 30" enable-background="new 0 0 120 30" xml:space="preserve">
<g>
	<path fill-rule="evenodd" clip-rule="evenodd" fill="#FFFFFF" d="M11.822,5.561c1.281,0.434,2.608,0.723,3.796,1.433
		c2.235,1.335,2.339,1.539,1.372,3.894c-1.564,3.808-3.801,7.221-6.228,10.52c-0.212,0.289-0.36,0.526-0.696,0.07
		c-2.694-3.664-5.138-7.464-6.73-11.762C3.042,8.923,3.167,8.417,3.837,7.903c1.324-1.017,2.78-1.721,4.393-2.124
		c0.189-0.047,0.436,0.028,0.547-0.219C9.792,5.561,10.807,5.561,11.822,5.561z"/>
	<path fill-rule="evenodd" clip-rule="evenodd" fill="#FFFFFF" d="M0.18,14.516c0.445-1.373,0.714-2.811,1.541-4.04
		c0.262-0.388,0.496-0.792,0.899-1.123c-0.287,3.655,1.407,6.612,3.037,9.582c0.916,1.67,2.088,3.189,2.931,4.902
		c0.222,0.451,0.382,0.934,0.56,1.405c0.249,0.66,0.026,0.841-0.648,0.692c-3.427-0.757-5.883-2.719-7.396-5.88
		c-0.437-0.911-0.581-1.913-0.924-2.854C0.18,16.307,0.18,15.412,0.18,14.516z"/>
	<path fill-rule="evenodd" clip-rule="evenodd" fill="#FFFFFF" d="M119.985,15.605c0.063-0.005,0.128-0.01,0.191-0.015
		c0,1.611,0,3.224,0,4.835c-0.063-0.005-0.128-0.01-0.192-0.016c-0.21-0.199-0.246-0.463-0.254-0.729c-0.03-1.115-0.03-2.23,0-3.345
		C119.737,16.068,119.79,15.811,119.985,15.605z"/>
	<path fill-rule="evenodd" clip-rule="evenodd" fill="#FFFFFF" d="M59.459,14.157c0.641-0.925,1.25-1.704,1.744-2.549
		c0.396-0.676,0.875-0.975,1.656-0.864c0.428,0.061,0.872,0.011,1.475,0.011c-1.112,1.584-2.102,3.062-3.169,4.479
		c-0.384,0.509-0.332,0.814,0.027,1.29c1.073,1.416,2.089,2.876,3.231,4.466c-0.872,0-1.573-0.007-2.275,0.003
		c-0.334,0.004-0.451-0.251-0.604-0.463c-0.556-0.776-1.142-1.534-1.646-2.343c-0.371-0.596-0.588-0.465-0.906,0.023
		c-0.406,0.625-0.922,1.185-1.277,1.835c-0.432,0.79-1.021,1.079-1.889,0.956c-0.375-0.053-0.765-0.009-1.357-0.009
		c0.709-0.987,1.328-1.843,1.939-2.702c0.57-0.801,1.568-1.601,1.578-2.411c0.009-0.803-0.977-1.62-1.535-2.425
		c-0.492-0.708-0.996-1.407-1.557-2.2c-1.124,1.977-2.276,3.822-3.233,5.765c-0.443,0.898-0.073,2.001-0.155,3.007
		c-0.026,0.32,0.229,0.837-0.241,0.923c-0.57,0.104-1.184,0.043-1.768-0.032c-0.217-0.027-0.154-0.371-0.124-0.558
		c0.392-2.403-0.542-4.405-1.822-6.337c-0.668-1.007-1.207-2.101-1.868-3.268c0.64,0,1.141,0.028,1.637-0.008
		c0.451-0.033,0.691,0.14,0.898,0.54c0.685,1.323,1.414,2.624,2.206,4.08c0.759-1.385,1.486-2.656,2.153-3.958
		c0.25-0.487,0.533-0.695,1.096-0.667c1.101,0.054,2.333-0.272,3.274,0.123c0.948,0.398,1.324,1.689,1.98,2.568
		C59.084,13.642,59.237,13.854,59.459,14.157z"/>
	<path fill-rule="evenodd" clip-rule="evenodd" fill="#FFFFFF" d="M18.251,9.259c2.797,3.068,3.212,8.193,1.109,11.696
		c-1.588,2.645-3.873,4.299-6.885,4.967c-0.671,0.149-0.955,0.072-0.704-0.714c0.339-1.063,0.873-2.017,1.45-2.955
		c1.17-1.902,2.407-3.767,3.366-5.791C17.638,14.247,18.55,11.996,18.251,9.259z"/>
	<path fill-rule="evenodd" clip-rule="evenodd" fill="#FFFFFF" d="M91.244,18.332c1.17-2.396,2.289-4.694,3.418-6.987
		c0.122-0.248,0.156-0.587,0.569-0.594c0.446-0.008,0.772-0.039,0.764,0.62c-0.038,2.983-0.015,5.967-0.019,8.95
		c-0.001,0.305,0.115,0.668-0.432,0.683c-0.56,0.015-0.439-0.353-0.439-0.656c-0.005-2.655-0.003-5.31-0.134-8.022
		c-0.359,0.724-0.722,1.446-1.076,2.171c-0.669,1.366-1.33,2.735-2.002,4.1c-0.139,0.279-0.206,0.623-0.658,0.615
		s-0.507-0.363-0.644-0.639c-1.019-2.046-2.026-4.098-3.214-6.122c0,2.001-0.001,4.002,0,6.003c0,0.687-0.008,1.373,0.008,2.059
		c0.008,0.33-0.089,0.482-0.45,0.49c-0.38,0.008-0.434-0.173-0.434-0.488c0.007-3.104,0.003-6.207,0.007-9.31
		c0.001-0.192-0.067-0.45,0.271-0.446c0.374,0.004,0.746-0.091,0.969,0.4c0.541,1.195,1.139,2.364,1.716,3.543
		C90.039,15.878,90.617,17.054,91.244,18.332z"/>
	<path fill-rule="evenodd" clip-rule="evenodd" fill="#FFFFFF" d="M108.897,19.404c0-2.643-0.001-5.285,0.002-7.928
		c0.001-0.205-0.021-0.436,0.063-0.606c0.11-0.223,0.374-0.105,0.569-0.105c0.327,0,0.254,0.27,0.254,0.459
		c0.005,3.102,0.004,6.204,0,9.305c0,0.19,0.075,0.45-0.259,0.457c-0.292,0.007-0.585,0.059-0.795-0.257
		c-0.413-0.62-0.855-1.221-1.287-1.828c-1.56-2.201-3.119-4.402-4.825-6.81c0,2.747,0,5.238,0,7.729
		c0,0.238-0.015,0.479,0.005,0.716c0.028,0.35-0.115,0.461-0.462,0.466c-0.376,0.005-0.438-0.167-0.438-0.486
		c0.007-3.102,0.003-6.204,0.008-9.306c0-0.187-0.083-0.425,0.258-0.458c0.402-0.04,0.655,0.107,0.888,0.44
		c1.21,1.737,2.443,3.457,3.669,5.183c0.726,1.021,1.45,2.041,2.175,3.062C108.781,19.426,108.84,19.415,108.897,19.404z"/>
	<path fill-rule="evenodd" clip-rule="evenodd" fill="#FFFFFF" d="M74.244,17.908c0,0.527,0,0.915,0,1.303
		c0,1.33,0.007,1.357-1.305,1.671c-1.226,0.294-2.467,0.38-3.719,0.1c-1.503-0.336-2.499-1.242-2.958-2.685
		c-0.593-1.862-0.484-3.713,0.332-5.495c0.599-1.306,1.695-1.956,3.082-2.146c1.138-0.157,2.258-0.021,3.373,0.234
		c0.359,0.082,0.553,0.229,0.468,0.598c-0.106,0.46-0.438,0.161-0.653,0.143c-0.502-0.043-0.997-0.16-1.499-0.214
		c-2.757-0.298-4.261,0.903-4.532,3.653c-0.064,0.649-0.063,1.316,0,1.966c0.192,2.003,1.322,3.112,3.333,3.326
		c0.296,0.031,0.596,0.037,0.894,0.031c2.232-0.046,2.368-0.187,2.372-2.396c0.004-1.718,0.003-1.689-1.703-1.739
		c-0.387-0.011-1.146,0.375-1.129-0.35c0.016-0.707,0.762-0.283,1.154-0.305c0.795-0.044,1.837-0.356,2.333,0.117
		C74.591,16.202,74.176,17.251,74.244,17.908z"/>
	<path fill-rule="evenodd" clip-rule="evenodd" fill="#FFFFFF" d="M119.985,15.605c0,1.602-0.001,3.203-0.001,4.805
		c-1.462,0.765-3.036,0.89-4.615,0.632c-2.115-0.344-3.342-1.82-3.566-4.101c-0.098-0.988-0.034-1.97,0.188-2.935
		c0.486-2.107,1.859-3.261,4.033-3.402c0.869-0.056,1.732,0.023,2.576,0.229c0.333,0.081,0.906,0.011,0.76,0.618
		c-0.146,0.608-0.589,0.135-0.875,0.123c-0.651-0.027-1.298-0.21-1.947-0.213c-2.21-0.011-3.34,0.959-3.758,3.148
		c-0.191,1.007-0.216,2.016-0.004,3.02c0.348,1.649,1.206,2.484,2.854,2.771c0.38,0.066,0.771,0.093,1.156,0.092
		c2.321-0.002,2.491-0.174,2.496-2.451c0.004-1.661,0.003-1.632-1.67-1.684c-0.396-0.012-1.146,0.388-1.163-0.317
		c-0.018-0.732,0.736-0.306,1.123-0.338C118.37,15.533,119.18,15.596,119.985,15.605z"/>
	<path fill-rule="evenodd" clip-rule="evenodd" fill="#FFFFFF" d="M98.326,15.784c0-1.46-0.004-2.92,0.003-4.38
		c0.002-0.297-0.132-0.662,0.431-0.663c0.544-0.001,0.452,0.336,0.452,0.652c0.001,2.98,0.002,5.959-0.001,8.938
		c0,0.31,0.104,0.66-0.441,0.667c-0.555,0.007-0.44-0.351-0.441-0.655C98.323,18.823,98.326,17.304,98.326,15.784z"/>
	<path fill-rule="evenodd" clip-rule="evenodd" fill="#FFFFFF" d="M31.694,10.652c-0.853-0.133-1.713-0.098-2.574,0.077
		c-1.844,0.375-2.925,1.475-3.31,3.302c-0.123,0.586-0.188,1.174-0.198,1.775c0.064,2.041,0.41,3.965,2.565,4.88
		c1.54,0.654,3.141,0.625,4.71,0.06c1.268-0.456,2.024-1.403,2.402-2.68c0.188-0.635,0.237-1.288,0.274-1.94
		C35.744,12.967,34.418,11.078,31.694,10.652z M33.313,16.854c-0.179,1.586-1.067,2.414-2.631,2.466
		c-1.536,0.05-2.431-0.678-2.762-2.208c-0.193-0.891-0.154-1.772,0.02-2.655c0.268-1.352,1.137-2.031,2.609-2.053
		c1.498-0.022,2.452,0.684,2.709,2.048c0.087,0.465,0.088,0.946,0.122,1.346C33.356,16.201,33.35,16.529,33.313,16.854z"/>
	<path fill-rule="evenodd" clip-rule="evenodd" fill="#FFFFFF" d="M45.249,12.938c-0.411-1.471-1.499-2.161-3.479-2.18
		c-1.343-0.013-2.688,0.029-4.029-0.018c-0.581-0.021-0.682,0.182-0.677,0.709c0.025,2.686,0.012,5.373,0.012,8.059
		c0,1.561,0,1.535,1.58,1.5c0.501-0.011,0.592-0.197,0.576-0.631c-0.026-0.745-0.012-1.492-0.003-2.238
		c0.002-0.192-0.066-0.412,0.193-0.535c0.829-0.392,2.25,0.141,2.635,0.999c0.109,0.245,0.214,0.493,0.321,0.739
		c0.777,1.777,0.777,1.777,2.734,1.621c0.027-0.003,0.054-0.021,0.175-0.073c-0.59-1.258-1.007-2.591-1.81-3.804
		C45.252,16.002,45.765,14.786,45.249,12.938z M41.803,15.778c-0.265,0.03-0.534,0.039-0.801,0.042
		c-1.778,0.02-1.778,0.018-1.778-1.727c0-1.548,0-1.549,1.593-1.546c0.327,0,0.657-0.012,0.98,0.023
		c0.979,0.106,1.406,0.604,1.405,1.605C43.2,15.176,42.775,15.669,41.803,15.778z"/>
	<path fill-rule="evenodd" clip-rule="evenodd" fill="#FFFFFF" d="M84.724,20.348c-1.129-3.046-2.289-6.081-3.417-9.127
		c-0.143-0.383-0.339-0.492-0.719-0.475c-0.345,0.015-0.603,0.022-0.756,0.433c-1.207,3.238-2.439,6.466-3.673,9.723
		c0.588,0.205,0.934,0.104,1.11-0.509c0.181-0.628,0.471-1.225,0.676-1.847c0.133-0.407,0.366-0.546,0.789-0.537
		c1.223,0.023,2.446,0.023,3.668-0.001c0.43-0.008,0.646,0.147,0.777,0.553c0.222,0.68,0.521,1.335,0.736,2.016
		c0.135,0.426,0.43,0.49,0.76,0.401C85.164,20.845,84.789,20.524,84.724,20.348z M78.823,17.283
		c-0.565-0.002-0.337-0.341-0.239-0.601c0.625-1.668,1.256-3.334,1.966-5.217c0.771,2.043,1.46,3.867,2.196,5.817
		C81.362,17.283,80.093,17.285,78.823,17.283z"/>
</g>
</svg>
